<svg width="198.7660888671875px" height="136.39999999999998px" xmlns="http://www.w3.org/2000/svg" viewBox="150.61695556640626 6.800000000000011 198.7660888671875 136.39999999999998" style="background: rgba(89, 104, 134, 0);" preserveAspectRatio="xMidYMid"><defs><filter id="editing-hover" x="-100%" y="-100%" width="300%" height="300%"><feFlood flood-color="#434343" result="flood"></feFlood><feComposite operator="in" in2="SourceAlpha" in="flood" result="shadow"></feComposite><feOffset dx="-2.6" dy="2.8" in="SourceGraphic" result="offset-1"></feOffset><feOffset dx="2.6" dy="-2.8" in="shadow" result="offset-2"></feOffset><feMerge><feMergeNode in="offset-2"></feMergeNode><feMergeNode in="offset-1"></feMergeNode></feMerge></filter></defs><g filter="url(#editing-hover)"><g transform="translate(184.99845266342163, 103.76499938964844)"><path d="M46.51-32.44L46.51-32.44L46.51-32.44Q46.51-31.89 45.12-31.89L45.12-31.89L45.12-31.89Q43.72-31.89 42.33-33.29L42.33-33.29L42.33-33.29Q40.94-34.68 40.94-36.69L40.94-36.69L40.94-36.69Q40.94-38.69 42.16-40.32L42.16-40.32L42.16-40.32Q44.74-43.86 50.80-45.36L50.80-45.36L50.80-45.36Q55.15-46.44 59.50-46.44L59.50-46.44L60.04-46.44L60.04-46.44Q60.66-46.44 63.38-46.24L63.38-46.24L63.38-46.24Q63.24-47.12 64.09-47.91L64.09-47.91L64.09-47.91Q64.94-48.69 66.03-48.69L66.03-48.69L66.03-48.69Q68.07-48.69 68-45.76L68-45.76L68-45.76Q75.34-44.47 75.75-41.82L75.75-41.82L75.75-41.82Q75.82-41.21 75.82-40.80L75.82-40.80L75.82-40.80Q75.82-39.44 75.04-39.44L75.04-39.44L75.04-39.44Q74.26-39.44 74.53-41.07L74.53-41.07L74.53-41.07Q72.83-43.59 67.80-44.61L67.80-44.61L67.80-44.61Q66.57-39.10 55.01-20.67L55.01-20.67L55.01-20.67Q47.33-8.57 37.13-0.41L37.13-0.41L37.13-0.41Q25.43 8.84 15.10 8.84L15.10 8.84L15.10 8.84Q8.77 8.84 5.71 5.64L5.71 5.64L5.71 5.64Q2.65 2.45 2.65-1.46L2.65-1.46L2.65-1.46Q2.65-5.37 4.15-8.16L4.15-8.16L4.15-8.16Q7.75-15.10 14.55-18.97L14.55-18.97L14.55-18.97Q19.58-21.90 23.87-21.90L23.87-21.90L23.87-21.90Q28.49-21.90 31.11-19.65L31.11-19.65L31.11-19.65Q33.73-17.41 33.73-14.01L33.73-14.01L33.73-14.01Q33.73-10.34 31.01-7.34L31.01-7.34L31.01-7.34Q29.31-5.44 28.29-5.44L28.29-5.44L28.29-5.44Q28.02-5.44 28.02-5.68L28.02-5.68L28.02-5.68Q28.02-5.92 28.22-6.32L28.22-6.32L28.22-6.32Q30.67-9.93 30.67-13.02L30.67-13.02L30.67-13.02Q30.67-16.12 28.97-18.09L28.97-18.09L28.97-18.09Q27.00-20.20 23.63-20.20L23.63-20.20L23.63-20.20Q20.26-20.20 16.12-17.48L16.12-17.48L16.12-17.48Q11.02-14.14 7.75-7.48L7.75-7.48L7.75-7.48Q6.05-4.15 6.05-0.58L6.05-0.58L6.05-0.58Q6.05 2.99 8.70 5.20L8.70 5.20L8.70 5.20Q11.36 7.41 15.84 7.41L15.84 7.41L15.84 7.41Q33.12 7.41 51.95-22.92L51.95-22.92L51.95-22.92Q63.24-41.00 63.51-45.08L63.51-45.08L63.51-45.08Q59.43-45.29 59.23-45.29L59.23-45.29L59.23-45.29Q56.03-45.29 51.03-43.52L51.03-43.52L51.03-43.52Q46.04-41.75 44.54-39.17L44.54-39.17L44.54-39.17Q43.93-38.15 43.93-36.92L43.93-36.92L43.93-36.92Q43.93-35.70 45.22-34.20L45.22-34.20L45.22-34.20Q46.51-32.71 46.51-32.44ZM72.01-0.27L72.01-0.27L72.01-0.27Q68-0.27 68-4.96L68-4.96L68-4.96Q68-7.62 69.87-10.85L69.87-10.85L69.87-10.85Q71.74-14.08 74.46-18.43L74.46-18.43L74.46-18.43Q65.76-14.08 58.68-5.58L58.68-5.58L58.68-5.58Q54.74 0.34 54.06 0.34L54.06 0.34L54.06 0.34Q52.09 0.34 52.09-0.82L52.09-0.82L52.09-0.82Q52.09-1.43 52.90-2.99L52.90-2.99L52.90-2.99Q59.50-14.76 62.90-20.20L62.90-20.20L62.90-20.20Q70.99-33.18 74.32-34.27L74.32-34.27L74.32-34.27Q74.46-34.34 74.60-34.34L74.60-34.34L74.60-34.34Q75.48-34.34 75.82-32.91L75.82-32.91L75.82-32.91Q75.62-31.48 68.75-22.58L68.75-22.58L68.75-22.58Q61.61-13.53 60.66-10.74L60.66-10.74L60.66-10.74Q63.17-12.58 69.43-16.93L69.43-16.93L69.43-16.93Q76.16-21.62 78.34-21.62L78.34-21.62L78.34-21.62Q80.51-21.62 80.51-19.92L80.51-19.92L80.51-19.92Q80.51-19.65 80.48-19.55L80.48-19.55L80.48-19.55Q80.44-19.45 75.75-13.12L75.75-13.12L75.75-13.12Q71.06-6.80 71.06-3.81L71.06-3.81L71.06-3.81Q71.06-2.24 72.22-2.24L72.22-2.24L72.22-2.24Q75.89-2.38 83.23-11.08L83.23-11.08L83.23-11.08Q83.84-11.70 84.15-11.70L84.15-11.70L84.15-11.70Q84.46-11.70 84.46-11.29L84.46-11.29L84.46-11.29Q84.46-9.93 77.72-3.94L77.72-3.94L77.72-3.94Q73.51-0.27 72.01-0.27ZM99.21-14.42L99.21-14.42L99.21-14.42Q99.21-12.04 94.66-6.46L94.66-6.46L94.66-6.46Q89.28 0.14 85.48 0.14L85.48 0.14L84.39 0.14L84.39 0.14Q82.62 0.14 81.60-1.70L81.60-1.70L81.60-1.70Q80.78-2.99 80.78-4.56L80.78-4.56L80.78-4.56Q80.78-8.64 86.73-16.01L86.73-16.01L86.73-16.01Q92.68-23.39 96.36-23.39L96.36-23.39L96.36-23.39Q99.82-23.39 99.82-19.72L99.82-19.72L99.82-19.72Q99.82-18.77 99.48-17.27L99.48-17.27L99.48-17.27Q99.55-17.07 100.78-17.07L100.78-17.07L100.78-17.07Q102-17.07 104.52-18.36L104.52-18.36L104.52-18.36Q104.45-17.20 99.14-15.03L99.14-15.03L99.14-15.03Q99.21-14.76 99.21-14.42ZM94.79-17.95L94.79-17.95L94.79-17.95Q92.48-17.95 88.23-12.51L88.23-12.51L88.23-12.51Q83.98-7.07 83.98-4.49L83.98-4.49L83.98-4.49Q83.98-1.90 85.61-1.90L85.61-1.90L85.61-1.90Q88.54-1.90 93.02-7.21L93.02-7.21L93.02-7.21Q97.51-12.51 97.51-14.82L97.51-14.82L97.51-14.82Q96.42-15.44 94.79-17.95ZM111.52-21.49L111.52-21.49L111.52-21.49Q113.36-21.49 113.36-20.06L113.36-20.06L113.36-20.06Q113.36-19.65 113.15-19.24L113.15-19.24L113.15-19.24Q107.03-10.74 105.81-6.39L105.81-6.39L105.81-6.39Q121.65-22.24 125.05-22.24L125.05-22.24L125.05-22.24Q125.39-22.30 125.66-22.30L125.66-22.30L125.66-22.30Q127.57-22.30 127.57-20.60L127.57-20.60L127.57-20.60Q127.57-20.26 127.43-19.92L127.43-19.92L127.43-19.92Q127.30-19.58 124.71-16.25L124.71-16.25L124.71-16.25Q121.72-12.72 119.65-9.45L119.65-9.45L119.65-9.45Q117.57-6.19 117.57-4.01L117.57-4.01L117.57-4.01Q117.57-1.84 118.52-1.84L118.52-1.84L118.52-1.84Q121.52-1.84 128.93-10.06L128.93-10.06L128.93-10.06Q129.06-10.20 129.40-10.68L129.40-10.68L129.40-10.68Q130.42-11.90 130.63-11.90L130.63-11.90L130.63-11.90Q130.83-11.90 130.83-11.22L130.83-11.22L130.83-11.22Q130.83-10.54 129.88-9.45L129.88-9.45L129.88-9.45Q121.45 0.14 117.91 0.14L117.91 0.14L117.91 0.14Q114.58 0.14 114.58-3.54L114.58-3.54L114.58-3.54Q114.58-7.21 117.30-11.97L117.30-11.97L121.65-19.04L121.65-19.04Q117.03-15.64 113.42-11.59L113.42-11.59L113.42-11.59Q109.82-7.55 106.86-3.74L106.86-3.74L106.86-3.74Q103.90 0.07 103.43 0.07L103.43 0.07L103.43 0.07Q102.41 0.07 101.83-0.78L101.83-0.78L101.83-0.78Q101.25-1.63 101.25-2.89L101.25-2.89L101.25-2.89Q101.25-4.15 102.14-6.26L102.14-6.26L102.14-6.26Q103.02-8.36 104.38-11.36L104.38-11.36L100.30-7.07L100.30-7.07Q98.80-5.58 98.43-5.58L98.43-5.58L98.43-5.58Q98.06-5.58 98.06-6.02L98.06-6.02L98.06-6.02Q98.06-6.46 98.60-7.00L98.60-7.00L98.60-7.00Q101.12-9.52 102.95-11.83L102.95-11.83L102.95-11.83Q104.72-14.14 110.23-20.67L110.23-20.67L110.23-20.67Q110.84-21.49 111.52-21.49Z" fill="#ffffff"></path></g></g><style>text {
  font-size: 64px;
  font-family: Arial Black;
  dominant-baseline: central;
  text-anchor: middle;
}</style></svg>